<svg xmlns="http://www.w3.org/2000/svg" viewBox="0 0 136.35 31.94"><defs><style>.cls-1{fill:#c3b765;}.cls-2{fill:#fff;}.cls-3{fill:#231f20;}</style></defs><g id="Layer_2" data-name="Layer 2"><g id="Layer_2-2" data-name="Layer 2"><path class="cls-1" d="M17.87,22.43s-10.56-1-12.72,1-3,1.38-3,1.38S.38,24.59,0,21.71a2.39,2.39,0,0,1,1.44-2.52l.05,0a10.27,10.27,0,0,0,4-3.05A22.16,22.16,0,0,0,8.93,10c.56-1.54,1-2.66,1.23-3.46a9.38,9.38,0,0,0,.48-3.2c0-1.17.25-2.84,2-3.24L13.17,0a3.16,3.16,0,0,1,3.45,3.19v.85a9.09,9.09,0,0,0,.88,4l0,0c.75,1.53,3.07,7.23,5.13,8.82,1.13.88,1.89,1.43,2.35,1.75a6.36,6.36,0,0,0,.85.47c.57.27,1.69,1.13,1.58,3.62a.65.65,0,0,1-.05.2h0a3.09,3.09,0,0,1-4.45,1.13,4.91,4.91,0,0,1-.81-.61,3.63,3.63,0,0,0-2.25-1Z"/><circle class="cls-2" cx="2.85" cy="21.62" r="1.08"/><circle class="cls-2" cx="25.04" cy="22.03" r="1.08"/><circle class="cls-2" cx="13.8" cy="2.2" r="1.08"/><path class="cls-2" d="M14.27,6.9a1,1,0,0,0-1.47,0A16.73,16.73,0,0,0,10,10.42c-1.62,2.7-3.6,6.39-3.6,6.39a6.18,6.18,0,0,0-.81,2v1c0,.94,1.62,1.17,1.62,1.17h12s3.49-.39,2.61-2.16S18.67,11.52,14.27,6.9Z"/><path class="cls-3" d="M37.82,16.76V9.35a2.66,2.66,0,0,1,.89-2.06c.64-.54,1.53-.65,2.39,1.39a.26.26,0,0,0,.4.12c.64-.52,2.35-1.88,4.06-1.85,2.16,0,.63.07,3.33.18a1.21,1.21,0,0,1,1.07,2,1.71,1.71,0,0,1-1.62.65c-1.27-.2-3.72-.4-5.12.69,0,0-2,1-1.95,2.58,0,1.29.06,7.59.06,9.76a1.55,1.55,0,0,1-.91,1.43A2,2,0,0,1,38.35,24a1.25,1.25,0,0,1-.53-1Z"/><path class="cls-3" d="M60.71,2.69s1.68-3,3.36,0V7.85h3.36a1.62,1.62,0,0,1-.36,2.88h-3v8.16s0,2.52,2.28,2.52,2.4.84,2.4.84,1,2.66-1.8,2.65A5.9,5.9,0,0,1,62.63,23a8,8,0,0,1-1.92-5Z"/><path class="cls-3" d="M128.15,2.72s1.68-3,3.36,0V7.88h3.36a1.62,1.62,0,0,1-.36,2.88h-3v8.16s0,2.52,2.28,2.52,2.4.84,2.4.84,1,2.66-1.8,2.65A5.9,5.9,0,0,1,130.07,23a8,8,0,0,1-1.92-5Z"/><path class="cls-3" d="M81.29,31.05a1.41,1.41,0,0,0,2.6.06L94,8.81s-.2-3.26-2.64-1.32L86.47,19s-.27,1.12-1.34-.62-3.56-7.26-4.74-9.67C80,7.85,79,6.91,78.08,7.24a1.36,1.36,0,0,0-.87,2l6.36,12.12s.78.48-.36,4.08a24.1,24.1,0,0,1-1.81,4.42,1.31,1.31,0,0,0-.11,1.14Z"/><path class="cls-3" d="M116.46,10.93a1,1,0,0,0-.16-.94A7.65,7.65,0,0,0,109,7.08c-5.28.65-5.64,2.93-5.64,2.93s-1,3.36,1.32,5A11.41,11.41,0,0,0,109.87,17s3.94,1,3.7,3.12-4.38,2.13-4.38,2.13-1.48.26-3.47-1.68a2.44,2.44,0,0,0-2.55-.5c-.85.33-1.51.94-.64,2,1.68,2.11,5.4,2.84,5.4,2.84s5.78.62,7.32-1.93c1.68-2.79,1.32-3.3,1.32-3.3a2.85,2.85,0,0,0-.56-2,6,6,0,0,0-3.27-2.53c-1-.33-2.24-.72-3-.92a16.33,16.33,0,0,1-2.88-1.08s-1.56-1.68.36-2.76a4.91,4.91,0,0,1,3.84-.36,4.7,4.7,0,0,1,2.4,1.44A1.84,1.84,0,0,0,116.46,10.93Z"/></g></g></svg>